<mxfile host="app.diagrams.net" modified="2024-07-01T01:12:58.216Z" agent="Mozilla/5.0 (X11; Linux x86_64) AppleWebKit/537.36 (KHTML, like Gecko) Chrome/126.0.0.0 Safari/537.36" etag="zYTGdJS-pfOyUxo935W7" version="24.6.4" type="device">
  <diagram name="Page-1" id="BMsLtdky9-Eu2m9CjBIF">
    <mxGraphModel dx="795" dy="340" grid="0" gridSize="1" guides="1" tooltips="1" connect="1" arrows="1" fold="1" page="0" pageScale="1" pageWidth="850" pageHeight="1100" math="1" shadow="0">
      <root>
        <mxCell id="0" />
        <mxCell id="1" parent="0" />
        <mxCell id="cthAjJGqaLLZOzj8Ev1N-72" value="" style="rounded=0;whiteSpace=wrap;html=1;fillColor=#e1d5e7;strokeColor=#9673a6;" parent="1" vertex="1">
          <mxGeometry x="64" y="112" width="720" height="256" as="geometry" />
        </mxCell>
        <mxCell id="cthAjJGqaLLZOzj8Ev1N-9" style="edgeStyle=orthogonalEdgeStyle;rounded=0;orthogonalLoop=1;jettySize=auto;html=1;exitX=1;exitY=0.75;exitDx=0;exitDy=0;endArrow=none;endFill=0;" parent="1" source="cthAjJGqaLLZOzj8Ev1N-1" edge="1">
          <mxGeometry relative="1" as="geometry">
            <mxPoint x="704" y="220" as="targetPoint" />
          </mxGeometry>
        </mxCell>
        <mxCell id="cthAjJGqaLLZOzj8Ev1N-10" style="edgeStyle=orthogonalEdgeStyle;rounded=0;orthogonalLoop=1;jettySize=auto;html=1;endArrow=none;endFill=0;" parent="1" edge="1">
          <mxGeometry relative="1" as="geometry">
            <mxPoint x="655" y="199.85" as="targetPoint" />
            <mxPoint x="116" y="199.85" as="sourcePoint" />
            <Array as="points">
              <mxPoint x="704" y="199.85" />
            </Array>
          </mxGeometry>
        </mxCell>
        <mxCell id="cthAjJGqaLLZOzj8Ev1N-11" style="edgeStyle=orthogonalEdgeStyle;rounded=0;orthogonalLoop=1;jettySize=auto;html=1;exitX=1;exitY=0.25;exitDx=0;exitDy=0;endArrow=none;endFill=0;" parent="1" source="cthAjJGqaLLZOzj8Ev1N-1" edge="1">
          <mxGeometry relative="1" as="geometry">
            <mxPoint x="704" y="180" as="targetPoint" />
          </mxGeometry>
        </mxCell>
        <mxCell id="cthAjJGqaLLZOzj8Ev1N-1" value="z64" style="rounded=0;whiteSpace=wrap;html=1;" parent="1" vertex="1">
          <mxGeometry x="85" y="160" width="80" height="80" as="geometry" />
        </mxCell>
        <mxCell id="cthAjJGqaLLZOzj8Ev1N-6" value="Address Bus" style="text;html=1;align=center;verticalAlign=middle;whiteSpace=wrap;rounded=0;" parent="1" vertex="1">
          <mxGeometry x="700" y="170" width="80" height="20" as="geometry" />
        </mxCell>
        <mxCell id="cthAjJGqaLLZOzj8Ev1N-7" value="Data Bus" style="text;html=1;align=center;verticalAlign=middle;whiteSpace=wrap;rounded=0;" parent="1" vertex="1">
          <mxGeometry x="700" y="190" width="80" height="20" as="geometry" />
        </mxCell>
        <mxCell id="cthAjJGqaLLZOzj8Ev1N-8" value="Control Bus" style="text;html=1;align=center;verticalAlign=middle;whiteSpace=wrap;rounded=0;" parent="1" vertex="1">
          <mxGeometry x="700" y="210" width="80" height="20" as="geometry" />
        </mxCell>
        <mxCell id="cthAjJGqaLLZOzj8Ev1N-30" style="edgeStyle=orthogonalEdgeStyle;rounded=0;orthogonalLoop=1;jettySize=auto;html=1;endArrow=oval;endFill=1;" parent="1" source="cthAjJGqaLLZOzj8Ev1N-12" edge="1">
          <mxGeometry relative="1" as="geometry">
            <mxPoint x="179.99999999999994" y="220" as="targetPoint" />
            <Array as="points">
              <mxPoint x="180" y="280" />
            </Array>
          </mxGeometry>
        </mxCell>
        <mxCell id="cthAjJGqaLLZOzj8Ev1N-12" value="" style="verticalLabelPosition=bottom;shadow=0;dashed=0;align=center;html=1;verticalAlign=top;shape=mxgraph.electrical.logic_gates.logic_gate;operation=and;direction=west;" parent="1" vertex="1">
          <mxGeometry x="190" y="270" width="30" height="20" as="geometry" />
        </mxCell>
        <mxCell id="cthAjJGqaLLZOzj8Ev1N-31" style="edgeStyle=orthogonalEdgeStyle;rounded=0;orthogonalLoop=1;jettySize=auto;html=1;exitX=0;exitY=0.25;exitDx=0;exitDy=0;exitPerimeter=0;endArrow=oval;endFill=1;" parent="1" source="cthAjJGqaLLZOzj8Ev1N-13" edge="1">
          <mxGeometry relative="1" as="geometry">
            <mxPoint x="230" y="220" as="targetPoint" />
            <Array as="points">
              <mxPoint x="230" y="275" />
            </Array>
          </mxGeometry>
        </mxCell>
        <mxCell id="cthAjJGqaLLZOzj8Ev1N-13" value="" style="verticalLabelPosition=bottom;shadow=0;dashed=0;align=center;html=1;verticalAlign=top;shape=mxgraph.electrical.logic_gates.logic_gate;operation=and;direction=east;" parent="1" vertex="1">
          <mxGeometry x="240" y="270" width="30" height="20" as="geometry" />
        </mxCell>
        <mxCell id="cthAjJGqaLLZOzj8Ev1N-18" style="edgeStyle=orthogonalEdgeStyle;rounded=0;orthogonalLoop=1;jettySize=auto;html=1;endArrow=oval;endFill=1;" parent="1" source="cthAjJGqaLLZOzj8Ev1N-15" edge="1">
          <mxGeometry relative="1" as="geometry">
            <mxPoint x="287" y="199" as="targetPoint" />
            <Array as="points">
              <mxPoint x="287" y="217" />
              <mxPoint x="287" y="217" />
            </Array>
          </mxGeometry>
        </mxCell>
        <mxCell id="cthAjJGqaLLZOzj8Ev1N-21" style="edgeStyle=orthogonalEdgeStyle;rounded=0;orthogonalLoop=1;jettySize=auto;html=1;exitX=0;exitY=0.5;exitDx=0;exitDy=0;entryX=0.5;entryY=0;entryDx=0;entryDy=0;endArrow=none;endFill=0;" parent="1" source="cthAjJGqaLLZOzj8Ev1N-15" target="cthAjJGqaLLZOzj8Ev1N-19" edge="1">
          <mxGeometry relative="1" as="geometry">
            <Array as="points">
              <mxPoint x="287" y="319" />
            </Array>
          </mxGeometry>
        </mxCell>
        <mxCell id="cthAjJGqaLLZOzj8Ev1N-19" value="IVN" style="rounded=0;whiteSpace=wrap;html=1;" parent="1" vertex="1">
          <mxGeometry x="257" y="319" width="60" height="25" as="geometry" />
        </mxCell>
        <mxCell id="cthAjJGqaLLZOzj8Ev1N-26" value="" style="ellipse;whiteSpace=wrap;html=1;aspect=fixed;" parent="1" vertex="1">
          <mxGeometry x="214" y="282" width="5" height="5" as="geometry" />
        </mxCell>
        <mxCell id="cthAjJGqaLLZOzj8Ev1N-27" style="edgeStyle=orthogonalEdgeStyle;rounded=0;orthogonalLoop=1;jettySize=auto;html=1;exitX=0;exitY=0.75;exitDx=0;exitDy=0;exitPerimeter=0;entryX=0;entryY=0.25;entryDx=0;entryDy=0;entryPerimeter=0;endArrow=none;endFill=0;" parent="1" source="cthAjJGqaLLZOzj8Ev1N-12" target="cthAjJGqaLLZOzj8Ev1N-13" edge="1">
          <mxGeometry relative="1" as="geometry" />
        </mxCell>
        <mxCell id="cthAjJGqaLLZOzj8Ev1N-34" value="$$IACK_{IN}$$" style="text;html=1;align=center;verticalAlign=middle;whiteSpace=wrap;rounded=0;fontSize=6;" parent="1" vertex="1">
          <mxGeometry x="225" y="205" width="35" height="15" as="geometry" />
        </mxCell>
        <mxCell id="cthAjJGqaLLZOzj8Ev1N-35" value="$$IACK_{OUT}$$" style="text;html=1;align=center;verticalAlign=middle;whiteSpace=wrap;rounded=0;fontSize=6;" parent="1" vertex="1">
          <mxGeometry x="175" y="205" width="35" height="15" as="geometry" />
        </mxCell>
        <mxCell id="cthAjJGqaLLZOzj8Ev1N-37" style="edgeStyle=orthogonalEdgeStyle;rounded=0;orthogonalLoop=1;jettySize=auto;html=1;exitX=0;exitY=0.4528301886792453;exitDx=0;exitDy=0;exitPerimeter=0;endArrow=oval;endFill=1;" parent="1" source="cthAjJGqaLLZOzj8Ev1N-36" edge="1">
          <mxGeometry relative="1" as="geometry">
            <mxPoint x="446" y="180" as="targetPoint" />
          </mxGeometry>
        </mxCell>
        <mxCell id="cthAjJGqaLLZOzj8Ev1N-36" value="DECODER" style="shadow=0;dashed=0;align=center;html=1;strokeWidth=1;shape=mxgraph.electrical.abstract.mux2;operation=demux;whiteSpace=wrap;direction=south;" parent="1" vertex="1">
          <mxGeometry x="388" y="239" width="106" height="49.5" as="geometry" />
        </mxCell>
        <mxCell id="cthAjJGqaLLZOzj8Ev1N-40" style="edgeStyle=orthogonalEdgeStyle;rounded=0;orthogonalLoop=1;jettySize=auto;html=1;exitX=0;exitY=0.25;exitDx=0;exitDy=0;exitPerimeter=0;endArrow=oval;endFill=1;" parent="1" source="cthAjJGqaLLZOzj8Ev1N-38" edge="1">
          <mxGeometry relative="1" as="geometry">
            <mxPoint x="514" y="220" as="targetPoint" />
            <Array as="points">
              <mxPoint x="514" y="305" />
            </Array>
          </mxGeometry>
        </mxCell>
        <mxCell id="cthAjJGqaLLZOzj8Ev1N-41" style="edgeStyle=orthogonalEdgeStyle;rounded=0;orthogonalLoop=1;jettySize=auto;html=1;exitX=0.226;exitY=0.505;exitDx=0;exitDy=0;exitPerimeter=0;endArrow=oval;endFill=1;" parent="1" source="cthAjJGqaLLZOzj8Ev1N-38" edge="1">
          <mxGeometry relative="1" as="geometry">
            <mxPoint x="500" y="220" as="targetPoint" />
            <Array as="points">
              <mxPoint x="500" y="310" />
            </Array>
          </mxGeometry>
        </mxCell>
        <mxCell id="cthAjJGqaLLZOzj8Ev1N-38" value="" style="verticalLabelPosition=bottom;shadow=0;dashed=0;align=center;html=1;verticalAlign=top;shape=mxgraph.electrical.logic_gates.logic_gate;operation=and;direction=east;" parent="1" vertex="1">
          <mxGeometry x="531" y="300" width="30" height="20" as="geometry" />
        </mxCell>
        <mxCell id="cthAjJGqaLLZOzj8Ev1N-39" style="edgeStyle=orthogonalEdgeStyle;rounded=0;orthogonalLoop=1;jettySize=auto;html=1;exitX=1;exitY=0.21226415094339623;exitDx=0;exitDy=3;exitPerimeter=0;entryX=0;entryY=0.75;entryDx=0;entryDy=0;entryPerimeter=0;endArrow=none;endFill=0;" parent="1" source="cthAjJGqaLLZOzj8Ev1N-36" target="cthAjJGqaLLZOzj8Ev1N-38" edge="1">
          <mxGeometry relative="1" as="geometry">
            <Array as="points">
              <mxPoint x="469" y="315" />
            </Array>
          </mxGeometry>
        </mxCell>
        <mxCell id="cthAjJGqaLLZOzj8Ev1N-42" value="$$I/O$$" style="text;html=1;align=center;verticalAlign=middle;whiteSpace=wrap;rounded=0;fontSize=6;" parent="1" vertex="1">
          <mxGeometry x="492" y="203" width="15" height="15" as="geometry" />
        </mxCell>
        <mxCell id="cthAjJGqaLLZOzj8Ev1N-43" value="$$WR$$" style="text;html=1;align=center;verticalAlign=middle;whiteSpace=wrap;rounded=0;fontSize=6;" parent="1" vertex="1">
          <mxGeometry x="508" y="203" width="15" height="15" as="geometry" />
        </mxCell>
        <mxCell id="5d6FU88w26UF70A7B40W-14" style="edgeStyle=orthogonalEdgeStyle;rounded=0;orthogonalLoop=1;jettySize=auto;html=1;exitX=0.5;exitY=1;exitDx=0;exitDy=0;entryX=0.5;entryY=1;entryDx=0;entryDy=0;endArrow=none;endFill=0;" edge="1" parent="1" source="cthAjJGqaLLZOzj8Ev1N-45" target="5d6FU88w26UF70A7B40W-3">
          <mxGeometry relative="1" as="geometry">
            <Array as="points">
              <mxPoint x="553" y="295" />
              <mxPoint x="574" y="295" />
              <mxPoint x="574" y="350" />
              <mxPoint x="413" y="350" />
            </Array>
          </mxGeometry>
        </mxCell>
        <mxCell id="cthAjJGqaLLZOzj8Ev1N-45" value="CU" style="ellipse;whiteSpace=wrap;html=1;aspect=fixed;" parent="1" vertex="1">
          <mxGeometry x="538" y="255" width="30" height="30" as="geometry" />
        </mxCell>
        <mxCell id="cthAjJGqaLLZOzj8Ev1N-47" value="" style="verticalLabelPosition=bottom;shadow=0;dashed=0;align=center;html=1;verticalAlign=top;shape=mxgraph.electrical.logic_gates.rs_latch;" parent="1" vertex="1">
          <mxGeometry x="568" y="250" width="100" height="80" as="geometry" />
        </mxCell>
        <mxCell id="cthAjJGqaLLZOzj8Ev1N-49" style="edgeStyle=orthogonalEdgeStyle;rounded=0;orthogonalLoop=1;jettySize=auto;html=1;entryX=0;entryY=0.25;entryDx=0;entryDy=0;entryPerimeter=0;endArrow=none;endFill=0;" parent="1" source="cthAjJGqaLLZOzj8Ev1N-45" target="cthAjJGqaLLZOzj8Ev1N-47" edge="1">
          <mxGeometry relative="1" as="geometry">
            <Array as="points">
              <mxPoint x="546" y="270" />
              <mxPoint x="546" y="270" />
            </Array>
          </mxGeometry>
        </mxCell>
        <mxCell id="cthAjJGqaLLZOzj8Ev1N-58" style="edgeStyle=orthogonalEdgeStyle;rounded=0;orthogonalLoop=1;jettySize=auto;html=1;exitX=0;exitY=0.25;exitDx=0;exitDy=0;exitPerimeter=0;entryX=0;entryY=0.8;entryDx=0;entryDy=0;entryPerimeter=0;endArrow=none;endFill=0;" parent="1" source="cthAjJGqaLLZOzj8Ev1N-12" target="cthAjJGqaLLZOzj8Ev1N-13" edge="1">
          <mxGeometry relative="1" as="geometry" />
        </mxCell>
        <mxCell id="cthAjJGqaLLZOzj8Ev1N-62" style="edgeStyle=orthogonalEdgeStyle;rounded=0;orthogonalLoop=1;jettySize=auto;html=1;exitX=0;exitY=0.75;exitDx=0;exitDy=0;exitPerimeter=0;entryX=1;entryY=0.25;entryDx=0;entryDy=0;entryPerimeter=0;endArrow=none;endFill=0;" parent="1" source="cthAjJGqaLLZOzj8Ev1N-13" target="cthAjJGqaLLZOzj8Ev1N-47" edge="1">
          <mxGeometry relative="1" as="geometry">
            <Array as="points">
              <mxPoint x="230" y="285" />
              <mxPoint x="230" y="360" />
              <mxPoint x="672" y="360" />
              <mxPoint x="672" y="270" />
            </Array>
          </mxGeometry>
        </mxCell>
        <mxCell id="cthAjJGqaLLZOzj8Ev1N-67" style="edgeStyle=orthogonalEdgeStyle;rounded=0;orthogonalLoop=1;jettySize=auto;html=1;endArrow=oval;endFill=1;" parent="1" source="cthAjJGqaLLZOzj8Ev1N-63" edge="1">
          <mxGeometry relative="1" as="geometry">
            <mxPoint x="672" y="220" as="targetPoint" />
          </mxGeometry>
        </mxCell>
        <mxCell id="cthAjJGqaLLZOzj8Ev1N-63" value="" style="verticalLabelPosition=bottom;shadow=0;dashed=0;align=center;html=1;verticalAlign=top;shape=mxgraph.electrical.logic_gates.inverter_2;direction=north;" parent="1" vertex="1">
          <mxGeometry x="666" y="242" width="12" height="20" as="geometry" />
        </mxCell>
        <mxCell id="cthAjJGqaLLZOzj8Ev1N-64" style="edgeStyle=orthogonalEdgeStyle;rounded=0;orthogonalLoop=1;jettySize=auto;html=1;exitX=1;exitY=0.25;exitDx=0;exitDy=0;exitPerimeter=0;entryX=0;entryY=0.5;entryDx=0;entryDy=0;entryPerimeter=0;endArrow=none;endFill=0;" parent="1" source="cthAjJGqaLLZOzj8Ev1N-47" target="cthAjJGqaLLZOzj8Ev1N-63" edge="1">
          <mxGeometry relative="1" as="geometry" />
        </mxCell>
        <mxCell id="cthAjJGqaLLZOzj8Ev1N-68" value="$$OC$$" style="text;html=1;align=center;verticalAlign=middle;whiteSpace=wrap;rounded=0;fontSize=6;" parent="1" vertex="1">
          <mxGeometry x="678" y="244.5" width="15" height="15" as="geometry" />
        </mxCell>
        <mxCell id="cthAjJGqaLLZOzj8Ev1N-69" value="$$\overline{IRQ}$$" style="text;html=1;align=center;verticalAlign=middle;whiteSpace=wrap;rounded=0;fontSize=6;" parent="1" vertex="1">
          <mxGeometry x="666" y="200" width="15" height="15" as="geometry" />
        </mxCell>
        <mxCell id="cthAjJGqaLLZOzj8Ev1N-71" value="$$SELECT$$" style="text;html=1;align=center;verticalAlign=middle;whiteSpace=wrap;rounded=0;fontSize=6;" parent="1" vertex="1">
          <mxGeometry x="475" y="312" width="15" height="15" as="geometry" />
        </mxCell>
        <mxCell id="cthAjJGqaLLZOzj8Ev1N-73" value="GEARBOX" style="text;html=1;align=center;verticalAlign=middle;whiteSpace=wrap;rounded=0;" parent="1" vertex="1">
          <mxGeometry x="390" y="120" width="60" height="30" as="geometry" />
        </mxCell>
        <mxCell id="cthAjJGqaLLZOzj8Ev1N-74" value="" style="rounded=0;whiteSpace=wrap;html=1;fillColor=#e1d5e7;strokeColor=#9673a6;" parent="1" vertex="1">
          <mxGeometry x="63" y="400" width="720" height="287" as="geometry" />
        </mxCell>
        <mxCell id="cthAjJGqaLLZOzj8Ev1N-75" style="edgeStyle=orthogonalEdgeStyle;rounded=0;orthogonalLoop=1;jettySize=auto;html=1;exitX=1;exitY=0.75;exitDx=0;exitDy=0;endArrow=none;endFill=0;" parent="1" source="cthAjJGqaLLZOzj8Ev1N-78" edge="1">
          <mxGeometry relative="1" as="geometry">
            <mxPoint x="705" y="524" as="targetPoint" />
          </mxGeometry>
        </mxCell>
        <mxCell id="cthAjJGqaLLZOzj8Ev1N-76" style="edgeStyle=orthogonalEdgeStyle;rounded=0;orthogonalLoop=1;jettySize=auto;html=1;endArrow=none;endFill=0;" parent="1" edge="1">
          <mxGeometry relative="1" as="geometry">
            <mxPoint x="656" y="503.85" as="targetPoint" />
            <mxPoint x="117" y="503.85" as="sourcePoint" />
            <Array as="points">
              <mxPoint x="705" y="503.85" />
            </Array>
          </mxGeometry>
        </mxCell>
        <mxCell id="cthAjJGqaLLZOzj8Ev1N-77" style="edgeStyle=orthogonalEdgeStyle;rounded=0;orthogonalLoop=1;jettySize=auto;html=1;exitX=1;exitY=0.25;exitDx=0;exitDy=0;endArrow=none;endFill=0;" parent="1" source="cthAjJGqaLLZOzj8Ev1N-78" edge="1">
          <mxGeometry relative="1" as="geometry">
            <mxPoint x="705" y="484" as="targetPoint" />
          </mxGeometry>
        </mxCell>
        <mxCell id="cthAjJGqaLLZOzj8Ev1N-78" value="z64" style="rounded=0;whiteSpace=wrap;html=1;" parent="1" vertex="1">
          <mxGeometry x="86" y="464" width="80" height="80" as="geometry" />
        </mxCell>
        <mxCell id="cthAjJGqaLLZOzj8Ev1N-79" value="Address Bus" style="text;html=1;align=center;verticalAlign=middle;whiteSpace=wrap;rounded=0;" parent="1" vertex="1">
          <mxGeometry x="701" y="474" width="80" height="20" as="geometry" />
        </mxCell>
        <mxCell id="cthAjJGqaLLZOzj8Ev1N-80" value="Data Bus" style="text;html=1;align=center;verticalAlign=middle;whiteSpace=wrap;rounded=0;" parent="1" vertex="1">
          <mxGeometry x="701" y="494" width="80" height="20" as="geometry" />
        </mxCell>
        <mxCell id="cthAjJGqaLLZOzj8Ev1N-81" value="Control Bus" style="text;html=1;align=center;verticalAlign=middle;whiteSpace=wrap;rounded=0;" parent="1" vertex="1">
          <mxGeometry x="701" y="514" width="80" height="20" as="geometry" />
        </mxCell>
        <mxCell id="cthAjJGqaLLZOzj8Ev1N-95" style="edgeStyle=orthogonalEdgeStyle;rounded=0;orthogonalLoop=1;jettySize=auto;html=1;exitX=0;exitY=0.4528301886792453;exitDx=0;exitDy=0;exitPerimeter=0;endArrow=oval;endFill=1;" parent="1" source="cthAjJGqaLLZOzj8Ev1N-96" edge="1">
          <mxGeometry relative="1" as="geometry">
            <mxPoint x="408.93023255813955" y="484" as="targetPoint" />
          </mxGeometry>
        </mxCell>
        <mxCell id="cthAjJGqaLLZOzj8Ev1N-96" value="DECODER" style="shadow=0;dashed=0;align=center;html=1;strokeWidth=1;shape=mxgraph.electrical.abstract.mux2;operation=demux;whiteSpace=wrap;direction=south;" parent="1" vertex="1">
          <mxGeometry x="351" y="544" width="106" height="49.5" as="geometry" />
        </mxCell>
        <mxCell id="cthAjJGqaLLZOzj8Ev1N-97" style="edgeStyle=orthogonalEdgeStyle;rounded=0;orthogonalLoop=1;jettySize=auto;html=1;exitX=0;exitY=0.25;exitDx=0;exitDy=0;exitPerimeter=0;endArrow=oval;endFill=1;" parent="1" source="cthAjJGqaLLZOzj8Ev1N-99" edge="1">
          <mxGeometry relative="1" as="geometry">
            <mxPoint x="481.0232558139535" y="524" as="targetPoint" />
            <Array as="points">
              <mxPoint x="481" y="589" />
              <mxPoint x="481" y="589" />
            </Array>
          </mxGeometry>
        </mxCell>
        <mxCell id="cthAjJGqaLLZOzj8Ev1N-98" style="edgeStyle=orthogonalEdgeStyle;rounded=0;orthogonalLoop=1;jettySize=auto;html=1;exitX=0.226;exitY=0.505;exitDx=0;exitDy=0;exitPerimeter=0;endArrow=oval;endFill=1;" parent="1" source="cthAjJGqaLLZOzj8Ev1N-99" edge="1">
          <mxGeometry relative="1" as="geometry">
            <mxPoint x="466" y="524" as="targetPoint" />
            <Array as="points">
              <mxPoint x="466" y="614" />
              <mxPoint x="466" y="524" />
            </Array>
          </mxGeometry>
        </mxCell>
        <mxCell id="cthAjJGqaLLZOzj8Ev1N-99" value="" style="verticalLabelPosition=bottom;shadow=0;dashed=0;align=center;html=1;verticalAlign=top;shape=mxgraph.electrical.logic_gates.logic_gate;operation=and;direction=east;" parent="1" vertex="1">
          <mxGeometry x="481" y="604" width="30" height="20" as="geometry" />
        </mxCell>
        <mxCell id="cthAjJGqaLLZOzj8Ev1N-100" style="edgeStyle=orthogonalEdgeStyle;rounded=0;orthogonalLoop=1;jettySize=auto;html=1;exitX=1;exitY=0.21226415094339623;exitDx=0;exitDy=3;exitPerimeter=0;entryX=0;entryY=0.75;entryDx=0;entryDy=0;entryPerimeter=0;endArrow=none;endFill=0;" parent="1" source="cthAjJGqaLLZOzj8Ev1N-96" target="cthAjJGqaLLZOzj8Ev1N-99" edge="1">
          <mxGeometry relative="1" as="geometry">
            <Array as="points">
              <mxPoint x="432" y="619" />
            </Array>
          </mxGeometry>
        </mxCell>
        <mxCell id="cthAjJGqaLLZOzj8Ev1N-101" value="$$I/O$$" style="text;html=1;align=center;verticalAlign=middle;whiteSpace=wrap;rounded=0;fontSize=6;" parent="1" vertex="1">
          <mxGeometry x="457" y="504" width="15" height="15" as="geometry" />
        </mxCell>
        <mxCell id="cthAjJGqaLLZOzj8Ev1N-102" value="$$WR$$" style="text;html=1;align=center;verticalAlign=middle;whiteSpace=wrap;rounded=0;fontSize=6;" parent="1" vertex="1">
          <mxGeometry x="476" y="504" width="15" height="15" as="geometry" />
        </mxCell>
        <mxCell id="cthAjJGqaLLZOzj8Ev1N-103" value="CU" style="ellipse;whiteSpace=wrap;html=1;aspect=fixed;" parent="1" vertex="1">
          <mxGeometry x="481" y="646" width="30" height="30" as="geometry" />
        </mxCell>
        <mxCell id="cthAjJGqaLLZOzj8Ev1N-134" style="edgeStyle=orthogonalEdgeStyle;rounded=0;orthogonalLoop=1;jettySize=auto;html=1;exitX=1;exitY=0.75;exitDx=0;exitDy=0;exitPerimeter=0;entryX=0.5;entryY=1;entryDx=0;entryDy=0;endArrow=none;endFill=0;" parent="1" source="cthAjJGqaLLZOzj8Ev1N-104" target="cthAjJGqaLLZOzj8Ev1N-103" edge="1">
          <mxGeometry relative="1" as="geometry">
            <Array as="points">
              <mxPoint x="648" y="680" />
              <mxPoint x="496" y="680" />
            </Array>
          </mxGeometry>
        </mxCell>
        <mxCell id="cthAjJGqaLLZOzj8Ev1N-104" value="" style="verticalLabelPosition=bottom;shadow=0;dashed=0;align=center;html=1;verticalAlign=top;shape=mxgraph.electrical.logic_gates.rs_latch;" parent="1" vertex="1">
          <mxGeometry x="548" y="582" width="100" height="80" as="geometry" />
        </mxCell>
        <mxCell id="cthAjJGqaLLZOzj8Ev1N-105" style="edgeStyle=orthogonalEdgeStyle;rounded=0;orthogonalLoop=1;jettySize=auto;html=1;entryX=0;entryY=0.75;entryDx=0;entryDy=0;entryPerimeter=0;endArrow=none;endFill=0;" parent="1" source="cthAjJGqaLLZOzj8Ev1N-99" target="cthAjJGqaLLZOzj8Ev1N-104" edge="1">
          <mxGeometry relative="1" as="geometry" />
        </mxCell>
        <mxCell id="cthAjJGqaLLZOzj8Ev1N-116" value="GEAR" style="text;html=1;align=center;verticalAlign=middle;whiteSpace=wrap;rounded=0;" parent="1" vertex="1">
          <mxGeometry x="353" y="424" width="144" height="30" as="geometry" />
        </mxCell>
        <mxCell id="cthAjJGqaLLZOzj8Ev1N-127" value="$$I/O$$" style="text;html=1;align=center;verticalAlign=middle;whiteSpace=wrap;rounded=0;fontSize=6;" parent="1" vertex="1">
          <mxGeometry x="335" y="504" width="15" height="15" as="geometry" />
        </mxCell>
        <mxCell id="cthAjJGqaLLZOzj8Ev1N-128" value="$$WR$$" style="text;html=1;align=center;verticalAlign=middle;whiteSpace=wrap;rounded=0;fontSize=6;" parent="1" vertex="1">
          <mxGeometry x="304" y="504" width="15" height="15" as="geometry" />
        </mxCell>
        <mxCell id="cthAjJGqaLLZOzj8Ev1N-133" style="edgeStyle=orthogonalEdgeStyle;rounded=0;orthogonalLoop=1;jettySize=auto;html=1;endArrow=oval;endFill=1;" parent="1" source="cthAjJGqaLLZOzj8Ev1N-131" edge="1">
          <mxGeometry relative="1" as="geometry">
            <mxPoint x="652" y="504" as="targetPoint" />
          </mxGeometry>
        </mxCell>
        <mxCell id="cthAjJGqaLLZOzj8Ev1N-132" style="edgeStyle=orthogonalEdgeStyle;rounded=0;orthogonalLoop=1;jettySize=auto;html=1;exitX=0;exitY=0.5;exitDx=0;exitDy=0;entryX=1;entryY=0.25;entryDx=0;entryDy=0;entryPerimeter=0;endArrow=none;endFill=0;" parent="1" source="cthAjJGqaLLZOzj8Ev1N-131" target="cthAjJGqaLLZOzj8Ev1N-104" edge="1">
          <mxGeometry relative="1" as="geometry">
            <Array as="points">
              <mxPoint x="652" y="602" />
            </Array>
          </mxGeometry>
        </mxCell>
        <mxCell id="cthAjJGqaLLZOzj8Ev1N-137" style="edgeStyle=orthogonalEdgeStyle;rounded=0;orthogonalLoop=1;jettySize=auto;html=1;endArrow=oval;endFill=1;exitX=0.241;exitY=0.483;exitDx=0;exitDy=0;exitPerimeter=0;" parent="1" source="cthAjJGqaLLZOzj8Ev1N-135" edge="1">
          <mxGeometry relative="1" as="geometry">
            <mxPoint x="553" y="524" as="targetPoint" />
          </mxGeometry>
        </mxCell>
        <mxCell id="cthAjJGqaLLZOzj8Ev1N-138" style="edgeStyle=orthogonalEdgeStyle;rounded=0;orthogonalLoop=1;jettySize=auto;html=1;exitX=0;exitY=0.25;exitDx=0;exitDy=0;exitPerimeter=0;endArrow=oval;endFill=1;" parent="1" source="cthAjJGqaLLZOzj8Ev1N-135" edge="1">
          <mxGeometry relative="1" as="geometry">
            <mxPoint x="575" y="524" as="targetPoint" />
          </mxGeometry>
        </mxCell>
        <mxCell id="cthAjJGqaLLZOzj8Ev1N-135" value="" style="verticalLabelPosition=bottom;shadow=0;dashed=0;align=center;html=1;verticalAlign=top;shape=mxgraph.electrical.logic_gates.logic_gate;operation=and;direction=east;" parent="1" vertex="1">
          <mxGeometry x="602" y="553" width="30" height="20" as="geometry" />
        </mxCell>
        <mxCell id="cthAjJGqaLLZOzj8Ev1N-136" style="edgeStyle=orthogonalEdgeStyle;rounded=0;orthogonalLoop=1;jettySize=auto;html=1;exitX=1;exitY=0.21226415094339623;exitDx=0;exitDy=3;exitPerimeter=0;entryX=0;entryY=0.75;entryDx=0;entryDy=0;entryPerimeter=0;endArrow=none;endFill=0;" parent="1" source="cthAjJGqaLLZOzj8Ev1N-96" target="cthAjJGqaLLZOzj8Ev1N-135" edge="1">
          <mxGeometry relative="1" as="geometry">
            <Array as="points">
              <mxPoint x="432" y="597" />
              <mxPoint x="492" y="597" />
              <mxPoint x="492" y="568" />
            </Array>
          </mxGeometry>
        </mxCell>
        <mxCell id="cthAjJGqaLLZOzj8Ev1N-139" value="$$I/O$$" style="text;html=1;align=center;verticalAlign=middle;whiteSpace=wrap;rounded=0;fontSize=6;" parent="1" vertex="1">
          <mxGeometry x="545" y="507" width="15" height="15" as="geometry" />
        </mxCell>
        <mxCell id="cthAjJGqaLLZOzj8Ev1N-140" value="$$RD$$" style="text;html=1;align=center;verticalAlign=middle;whiteSpace=wrap;rounded=0;fontSize=6;" parent="1" vertex="1">
          <mxGeometry x="567" y="506" width="15" height="15" as="geometry" />
        </mxCell>
        <mxCell id="cthAjJGqaLLZOzj8Ev1N-141" style="edgeStyle=orthogonalEdgeStyle;rounded=0;orthogonalLoop=1;jettySize=auto;html=1;exitX=1;exitY=0.5;exitDx=0;exitDy=0;exitPerimeter=0;entryX=0.465;entryY=0.275;entryDx=0;entryDy=0;entryPerimeter=0;endArrow=none;endFill=0;" parent="1" source="cthAjJGqaLLZOzj8Ev1N-135" target="cthAjJGqaLLZOzj8Ev1N-131" edge="1">
          <mxGeometry relative="1" as="geometry" />
        </mxCell>
        <mxCell id="cthAjJGqaLLZOzj8Ev1N-131" value="" style="verticalLabelPosition=bottom;shadow=0;dashed=0;align=center;html=1;verticalAlign=top;shape=mxgraph.electrical.logic_gates.buffer2;direction=north;" parent="1" vertex="1">
          <mxGeometry x="642" y="547" width="20" height="30" as="geometry" />
        </mxCell>
        <mxCell id="cthAjJGqaLLZOzj8Ev1N-190" value="STATUS" style="text;html=1;align=center;verticalAlign=middle;whiteSpace=wrap;rounded=0;" parent="1" vertex="1">
          <mxGeometry x="567" y="608" width="60" height="30" as="geometry" />
        </mxCell>
        <mxCell id="cthAjJGqaLLZOzj8Ev1N-191" value="INT_REQ" style="text;html=1;align=center;verticalAlign=middle;whiteSpace=wrap;rounded=0;" parent="1" vertex="1">
          <mxGeometry x="589" y="275" width="60" height="30" as="geometry" />
        </mxCell>
        <mxCell id="xpZ57HRokIBA1SEaAe0v-14" style="edgeStyle=orthogonalEdgeStyle;rounded=0;orthogonalLoop=1;jettySize=auto;html=1;exitX=0;exitY=0.75;exitDx=0;exitDy=0;exitPerimeter=0;endArrow=oval;endFill=1;" parent="1" source="xpZ57HRokIBA1SEaAe0v-7" edge="1">
          <mxGeometry relative="1" as="geometry">
            <mxPoint x="312" y="524" as="targetPoint" />
            <Array as="points">
              <mxPoint x="312" y="568" />
            </Array>
          </mxGeometry>
        </mxCell>
        <mxCell id="xpZ57HRokIBA1SEaAe0v-15" style="edgeStyle=orthogonalEdgeStyle;rounded=0;orthogonalLoop=1;jettySize=auto;html=1;exitX=0;exitY=0.25;exitDx=0;exitDy=0;exitPerimeter=0;endArrow=oval;endFill=1;" parent="1" source="xpZ57HRokIBA1SEaAe0v-7" edge="1">
          <mxGeometry relative="1" as="geometry">
            <mxPoint x="340" y="524" as="targetPoint" />
          </mxGeometry>
        </mxCell>
        <mxCell id="xpZ57HRokIBA1SEaAe0v-20" value="$$1$$" style="text;html=1;align=center;verticalAlign=middle;whiteSpace=wrap;rounded=0;fontSize=6;" parent="1" vertex="1">
          <mxGeometry x="308" y="237" width="15" height="15" as="geometry" />
        </mxCell>
        <mxCell id="5d6FU88w26UF70A7B40W-1" style="edgeStyle=orthogonalEdgeStyle;rounded=0;orthogonalLoop=1;jettySize=auto;html=1;exitX=1;exitY=0.5;exitDx=0;exitDy=0;exitPerimeter=0;entryX=0;entryY=0.75;entryDx=0;entryDy=0;entryPerimeter=0;endArrow=none;endFill=0;" edge="1" parent="1" source="cthAjJGqaLLZOzj8Ev1N-38" target="cthAjJGqaLLZOzj8Ev1N-47">
          <mxGeometry relative="1" as="geometry" />
        </mxCell>
        <mxCell id="5d6FU88w26UF70A7B40W-2" style="edgeStyle=orthogonalEdgeStyle;rounded=0;orthogonalLoop=1;jettySize=auto;html=1;exitX=1;exitY=0.5;exitDx=0;exitDy=0;exitPerimeter=0;entryX=0.468;entryY=0.285;entryDx=0;entryDy=0;entryPerimeter=0;endArrow=none;endFill=0;" edge="1" parent="1" source="cthAjJGqaLLZOzj8Ev1N-13" target="cthAjJGqaLLZOzj8Ev1N-15">
          <mxGeometry relative="1" as="geometry" />
        </mxCell>
        <mxCell id="cthAjJGqaLLZOzj8Ev1N-15" value="" style="verticalLabelPosition=bottom;shadow=0;dashed=0;align=center;html=1;verticalAlign=top;shape=mxgraph.electrical.logic_gates.buffer2;direction=north;" parent="1" vertex="1">
          <mxGeometry x="277" y="264" width="20" height="30" as="geometry" />
        </mxCell>
        <mxCell id="5d6FU88w26UF70A7B40W-3" value="COUNTER" style="rounded=0;whiteSpace=wrap;html=1;" vertex="1" parent="1">
          <mxGeometry x="380" y="313" width="66.5" height="25" as="geometry" />
        </mxCell>
        <mxCell id="5d6FU88w26UF70A7B40W-7" style="edgeStyle=orthogonalEdgeStyle;rounded=0;orthogonalLoop=1;jettySize=auto;html=1;exitX=0;exitY=0.75;exitDx=0;exitDy=0;exitPerimeter=0;endArrow=oval;endFill=1;" edge="1" parent="1" source="5d6FU88w26UF70A7B40W-5">
          <mxGeometry relative="1" as="geometry">
            <mxPoint x="370" y="220" as="targetPoint" />
            <Array as="points">
              <mxPoint x="370" y="274" />
              <mxPoint x="370" y="220" />
            </Array>
          </mxGeometry>
        </mxCell>
        <mxCell id="5d6FU88w26UF70A7B40W-8" style="edgeStyle=orthogonalEdgeStyle;rounded=0;orthogonalLoop=1;jettySize=auto;html=1;exitX=0.281;exitY=0.503;exitDx=0;exitDy=0;exitPerimeter=0;endArrow=oval;endFill=1;" edge="1" parent="1" source="5d6FU88w26UF70A7B40W-5">
          <mxGeometry relative="1" as="geometry">
            <mxPoint x="381" y="220" as="targetPoint" />
            <Array as="points">
              <mxPoint x="380" y="279" />
              <mxPoint x="380" y="220" />
            </Array>
          </mxGeometry>
        </mxCell>
        <mxCell id="5d6FU88w26UF70A7B40W-5" value="" style="verticalLabelPosition=bottom;shadow=0;dashed=0;align=center;html=1;verticalAlign=top;shape=mxgraph.electrical.logic_gates.logic_gate;operation=and;direction=west;" vertex="1" parent="1">
          <mxGeometry x="339" y="269" width="30" height="20" as="geometry" />
        </mxCell>
        <mxCell id="5d6FU88w26UF70A7B40W-6" style="edgeStyle=orthogonalEdgeStyle;rounded=0;orthogonalLoop=1;jettySize=auto;html=1;exitX=0;exitY=0.25;exitDx=0;exitDy=0;exitPerimeter=0;entryX=1;entryY=0.6367924528301887;entryDx=0;entryDy=3;entryPerimeter=0;endArrow=none;endFill=0;" edge="1" parent="1" source="5d6FU88w26UF70A7B40W-5" target="cthAjJGqaLLZOzj8Ev1N-36">
          <mxGeometry relative="1" as="geometry">
            <Array as="points">
              <mxPoint x="381" y="284" />
              <mxPoint x="381" y="293" />
              <mxPoint x="424" y="293" />
            </Array>
          </mxGeometry>
        </mxCell>
        <mxCell id="5d6FU88w26UF70A7B40W-9" value="$$I/O$$" style="text;html=1;align=center;verticalAlign=middle;whiteSpace=wrap;rounded=0;fontSize=6;" vertex="1" parent="1">
          <mxGeometry x="359" y="203" width="15" height="15" as="geometry" />
        </mxCell>
        <mxCell id="5d6FU88w26UF70A7B40W-10" value="$$RD$$" style="text;html=1;align=center;verticalAlign=middle;whiteSpace=wrap;rounded=0;fontSize=6;" vertex="1" parent="1">
          <mxGeometry x="375" y="203" width="15" height="15" as="geometry" />
        </mxCell>
        <mxCell id="5d6FU88w26UF70A7B40W-11" style="edgeStyle=orthogonalEdgeStyle;rounded=0;orthogonalLoop=1;jettySize=auto;html=1;exitX=1;exitY=0.5;exitDx=0;exitDy=0;exitPerimeter=0;entryX=0.448;entryY=0.75;entryDx=0;entryDy=0;entryPerimeter=0;endArrow=none;endFill=0;" edge="1" parent="1" source="5d6FU88w26UF70A7B40W-5" target="5d6FU88w26UF70A7B40W-4">
          <mxGeometry relative="1" as="geometry" />
        </mxCell>
        <mxCell id="5d6FU88w26UF70A7B40W-12" style="edgeStyle=orthogonalEdgeStyle;rounded=0;orthogonalLoop=1;jettySize=auto;html=1;exitX=1;exitY=0.5;exitDx=0;exitDy=0;endArrow=oval;endFill=1;" edge="1" parent="1" source="5d6FU88w26UF70A7B40W-4">
          <mxGeometry relative="1" as="geometry">
            <mxPoint x="321" y="200" as="targetPoint" />
          </mxGeometry>
        </mxCell>
        <mxCell id="5d6FU88w26UF70A7B40W-13" style="edgeStyle=orthogonalEdgeStyle;rounded=0;orthogonalLoop=1;jettySize=auto;html=1;exitX=0;exitY=0.5;exitDx=0;exitDy=0;entryX=0.5;entryY=0;entryDx=0;entryDy=0;endArrow=none;endFill=0;" edge="1" parent="1" source="5d6FU88w26UF70A7B40W-4" target="5d6FU88w26UF70A7B40W-3">
          <mxGeometry relative="1" as="geometry">
            <Array as="points">
              <mxPoint x="321" y="303" />
              <mxPoint x="413" y="303" />
            </Array>
          </mxGeometry>
        </mxCell>
        <mxCell id="5d6FU88w26UF70A7B40W-4" value="" style="verticalLabelPosition=bottom;shadow=0;dashed=0;align=center;html=1;verticalAlign=top;shape=mxgraph.electrical.logic_gates.buffer2;direction=north;" vertex="1" parent="1">
          <mxGeometry x="311" y="263" width="20" height="30" as="geometry" />
        </mxCell>
        <mxCell id="5d6FU88w26UF70A7B40W-15" value="$$LOAD$$" style="text;html=1;align=center;verticalAlign=middle;whiteSpace=wrap;rounded=0;fontSize=6;" vertex="1" parent="1">
          <mxGeometry x="504" y="336" width="15" height="15" as="geometry" />
        </mxCell>
        <mxCell id="5d6FU88w26UF70A7B40W-17" style="edgeStyle=orthogonalEdgeStyle;rounded=0;orthogonalLoop=1;jettySize=auto;html=1;exitX=1;exitY=0.5;exitDx=0;exitDy=0;entryX=0;entryY=0.5;entryDx=0;entryDy=0;endArrow=none;endFill=0;" edge="1" parent="1" source="5d6FU88w26UF70A7B40W-16" target="5d6FU88w26UF70A7B40W-3">
          <mxGeometry relative="1" as="geometry" />
        </mxCell>
        <mxCell id="5d6FU88w26UF70A7B40W-16" value="PU" style="ellipse;whiteSpace=wrap;html=1;aspect=fixed;" vertex="1" parent="1">
          <mxGeometry x="333" y="310.5" width="30" height="30" as="geometry" />
        </mxCell>
        <mxCell id="5d6FU88w26UF70A7B40W-19" style="edgeStyle=orthogonalEdgeStyle;rounded=0;orthogonalLoop=1;jettySize=auto;html=1;exitX=1;exitY=0.5;exitDx=0;exitDy=0;entryX=0;entryY=0.25;entryDx=0;entryDy=0;entryPerimeter=0;endArrow=none;endFill=0;" edge="1" parent="1" source="cthAjJGqaLLZOzj8Ev1N-103" target="cthAjJGqaLLZOzj8Ev1N-104">
          <mxGeometry relative="1" as="geometry">
            <Array as="points">
              <mxPoint x="521" y="661" />
              <mxPoint x="521" y="602" />
            </Array>
          </mxGeometry>
        </mxCell>
        <mxCell id="5d6FU88w26UF70A7B40W-20" value="" style="endArrow=none;html=1;rounded=0;" edge="1" parent="1">
          <mxGeometry width="50" height="50" relative="1" as="geometry">
            <mxPoint x="317" y="252" as="sourcePoint" />
            <mxPoint x="325" y="243" as="targetPoint" />
          </mxGeometry>
        </mxCell>
        <mxCell id="5d6FU88w26UF70A7B40W-21" style="edgeStyle=orthogonalEdgeStyle;rounded=0;orthogonalLoop=1;jettySize=auto;html=1;exitX=1;exitY=0.6367924528301887;exitDx=0;exitDy=3;exitPerimeter=0;entryX=0.218;entryY=0.496;entryDx=0;entryDy=0;entryPerimeter=0;endArrow=none;endFill=0;" edge="1" parent="1" source="cthAjJGqaLLZOzj8Ev1N-96" target="xpZ57HRokIBA1SEaAe0v-7">
          <mxGeometry relative="1" as="geometry">
            <Array as="points">
              <mxPoint x="320" y="594" />
              <mxPoint x="320" y="573" />
            </Array>
          </mxGeometry>
        </mxCell>
        <mxCell id="5d6FU88w26UF70A7B40W-23" style="edgeStyle=orthogonalEdgeStyle;rounded=0;orthogonalLoop=1;jettySize=auto;html=1;exitX=1;exitY=0.5;exitDx=0;exitDy=0;exitPerimeter=0;entryX=1;entryY=0.5;entryDx=0;entryDy=0;endArrow=none;endFill=0;" edge="1" parent="1" source="xpZ57HRokIBA1SEaAe0v-7" target="5d6FU88w26UF70A7B40W-22">
          <mxGeometry relative="1" as="geometry" />
        </mxCell>
        <mxCell id="xpZ57HRokIBA1SEaAe0v-7" value="" style="verticalLabelPosition=bottom;shadow=0;dashed=0;align=center;html=1;verticalAlign=top;shape=mxgraph.electrical.logic_gates.logic_gate;operation=and;direction=west;" parent="1" vertex="1">
          <mxGeometry x="272" y="562" width="36" height="22" as="geometry" />
        </mxCell>
        <mxCell id="5d6FU88w26UF70A7B40W-26" style="edgeStyle=orthogonalEdgeStyle;rounded=0;orthogonalLoop=1;jettySize=auto;html=1;exitX=0.5;exitY=1;exitDx=0;exitDy=0;entryX=0.5;entryY=0;entryDx=0;entryDy=0;endArrow=none;endFill=0;" edge="1" parent="1" source="5d6FU88w26UF70A7B40W-22" target="5d6FU88w26UF70A7B40W-25">
          <mxGeometry relative="1" as="geometry" />
        </mxCell>
        <mxCell id="5d6FU88w26UF70A7B40W-27" style="edgeStyle=orthogonalEdgeStyle;rounded=0;orthogonalLoop=1;jettySize=auto;html=1;exitX=0.5;exitY=0;exitDx=0;exitDy=0;endArrow=oval;endFill=1;" edge="1" parent="1" source="5d6FU88w26UF70A7B40W-22">
          <mxGeometry relative="1" as="geometry">
            <mxPoint x="211" y="505" as="targetPoint" />
          </mxGeometry>
        </mxCell>
        <mxCell id="5d6FU88w26UF70A7B40W-22" value="BIT_STREAM" style="rounded=0;whiteSpace=wrap;html=1;" vertex="1" parent="1">
          <mxGeometry x="168" y="560.5" width="85.5" height="25" as="geometry" />
        </mxCell>
        <mxCell id="5d6FU88w26UF70A7B40W-24" value="$$LOAD$$" style="text;html=1;align=center;verticalAlign=middle;whiteSpace=wrap;rounded=0;fontSize=6;" vertex="1" parent="1">
          <mxGeometry x="259" y="559" width="15" height="15" as="geometry" />
        </mxCell>
        <mxCell id="5d6FU88w26UF70A7B40W-25" value="PU" style="ellipse;whiteSpace=wrap;html=1;aspect=fixed;" vertex="1" parent="1">
          <mxGeometry x="195.75" y="610" width="30" height="30" as="geometry" />
        </mxCell>
      </root>
    </mxGraphModel>
  </diagram>
</mxfile>
